<svg xmlns="http://www.w3.org/2000/svg" width="1000" height="520" viewBox="0 0 1000 520">
<style>
text{font-family:Arial,Helvetica,sans-serif;fill:#111827} .axis{stroke:#374151;stroke-width:1.2} .grid{stroke:#e5e7eb;stroke-width:1} .muted{fill:#6b7280;font-size:12px} .title{font-size:19px;font-weight:700} .label{font-size:13px;font-weight:600} .tick{font-size:11px;fill:#374151}
</style>
<rect width="100%" height="100%" fill="white"/>
<text x="70" y="40" class="title">Distributed AI Inference System Architecture</text>
<rect x="70" y="110" width="150" height="72" rx="8" fill="#dbeafe" stroke="#374151" stroke-width="1.2"/>
<text x="145.0" y="150.0" text-anchor="middle" class="label">Load Test Clients</text>
<rect x="275" y="110" width="150" height="72" rx="8" fill="#dcfce7" stroke="#374151" stroke-width="1.2"/>
<text x="350.0" y="150.0" text-anchor="middle" class="label">Scheduler</text>
<rect x="480" y="110" width="170" height="72" rx="8" fill="#fef3c7" stroke="#374151" stroke-width="1.2"/>
<text x="565.0" y="150.0" text-anchor="middle" class="label">Adaptive Load Balancer</text>
<rect x="725" y="62" width="190" height="52" rx="8" fill="#f3e8ff" stroke="#374151" stroke-width="1.2"/>
<text x="820.0" y="92.0" text-anchor="middle" class="label">Thunder GPU Worker 0</text>
<rect x="725" y="124" width="190" height="52" rx="8" fill="#f3e8ff" stroke="#374151" stroke-width="1.2"/>
<text x="820.0" y="154.0" text-anchor="middle" class="label">Thunder GPU Worker 1</text>
<rect x="725" y="186" width="190" height="52" rx="8" fill="#f3e8ff" stroke="#374151" stroke-width="1.2"/>
<text x="820.0" y="216.0" text-anchor="middle" class="label">Thunder GPU Worker 2</text>
<rect x="725" y="248" width="190" height="52" rx="8" fill="#f3e8ff" stroke="#374151" stroke-width="1.2"/>
<text x="820.0" y="278.0" text-anchor="middle" class="label">Thunder GPU Worker 3</text>
<rect x="725" y="310" width="190" height="52" rx="8" fill="#f3e8ff" stroke="#374151" stroke-width="1.2"/>
<text x="820.0" y="340.0" text-anchor="middle" class="label">Thunder GPU Worker 4</text>
<rect x="725" y="372" width="190" height="52" rx="8" fill="#f3e8ff" stroke="#374151" stroke-width="1.2"/>
<text x="820.0" y="402.0" text-anchor="middle" class="label">Thunder GPU Worker 5</text>
<rect x="275" y="300" width="150" height="70" rx="8" fill="#e0f2fe" stroke="#374151" stroke-width="1.2"/>
<text x="350.0" y="339.0" text-anchor="middle" class="label">RAG / FAISS</text>
<rect x="480" y="300" width="170" height="70" rx="8" fill="#fee2e2" stroke="#374151" stroke-width="1.2"/>
<text x="565.0" y="339.0" text-anchor="middle" class="label">Metrics + Evidence</text>
<defs><marker id="arrow" markerWidth="10" markerHeight="8" refX="9" refY="4" orient="auto"><path d="M0,0 L10,4 L0,8 z" fill="#374151"/></marker></defs>
<line x1="220" y1="146" x2="275" y2="146" stroke="#374151" stroke-width="2" marker-end="url(#arrow)"/>
<line x1="425" y1="146" x2="480" y2="146" stroke="#374151" stroke-width="2" marker-end="url(#arrow)"/>
<line x1="650" y1="146" x2="725" y2="88" stroke="#374151" stroke-width="2" marker-end="url(#arrow)"/>
<line x1="650" y1="146" x2="725" y2="150" stroke="#374151" stroke-width="2" marker-end="url(#arrow)"/>
<line x1="650" y1="146" x2="725" y2="212" stroke="#374151" stroke-width="2" marker-end="url(#arrow)"/>
<line x1="650" y1="146" x2="725" y2="274" stroke="#374151" stroke-width="2" marker-end="url(#arrow)"/>
<line x1="650" y1="146" x2="725" y2="336" stroke="#374151" stroke-width="2" marker-end="url(#arrow)"/>
<line x1="650" y1="146" x2="725" y2="398" stroke="#374151" stroke-width="2" marker-end="url(#arrow)"/>
<line x1="350" y1="182" x2="350" y2="300" stroke="#374151" stroke-width="2" marker-end="url(#arrow)"/>
<line x1="565" y1="182" x2="565" y2="300" stroke="#374151" stroke-width="2" marker-end="url(#arrow)"/>
<text x="70" y="472" class="muted">Each worker is a real Thunder Compute A6000 VM running Ollama; GPU metrics are polled through per-node metrics agents.</text>
</svg>