<svg xmlns="http://www.w3.org/2000/svg" width="960" height="540" viewBox="0 0 960 540">
<style>
text{font-family:Arial,Helvetica,sans-serif;fill:#111827} .axis{stroke:#374151;stroke-width:1.2} .grid{stroke:#e5e7eb;stroke-width:1} .muted{fill:#6b7280;font-size:12px} .title{font-size:19px;font-weight:700} .label{font-size:13px;font-weight:600} .tick{font-size:11px;fill:#374151}
</style>
<rect width="100%" height="100%" fill="white"/>
<text x="82" y="34" class="title">GPU Telemetry Maxima During Six-Worker Evaluation</text>
<text x="22" y="261.0" transform="rotate(-90 22 261.0)" class="label">Value</text>
<line x1="82" y1="72.00" x2="924" y2="72.00" class="grid"/>
<text x="72" y="76.00" text-anchor="end" class="tick">151.8</text>
<line x1="82" y1="147.60" x2="924" y2="147.60" class="grid"/>
<text x="72" y="151.60" text-anchor="end" class="tick">121.4</text>
<line x1="82" y1="223.20" x2="924" y2="223.20" class="grid"/>
<text x="72" y="227.20" text-anchor="end" class="tick">91.1</text>
<line x1="82" y1="298.80" x2="924" y2="298.80" class="grid"/>
<text x="72" y="302.80" text-anchor="end" class="tick">60.7</text>
<line x1="82" y1="374.40" x2="924" y2="374.40" class="grid"/>
<text x="72" y="378.40" text-anchor="end" class="tick">30.4</text>
<line x1="82" y1="450.00" x2="924" y2="450.00" class="grid"/>
<text x="72" y="454.00" text-anchor="end" class="tick">0.0</text>
<line x1="82" y1="72" x2="82" y2="450" class="axis"/>
<line x1="82" y1="450" x2="924" y2="450" class="axis"/>
<rect x="90" y="48" width="14" height="8" fill="#2563eb"/>
<text x="110" y="56" class="muted">GPU util (%)</text>
<rect x="240" y="48" width="14" height="8" fill="#dc2626"/>
<text x="260" y="56" class="muted">Temp (C)</text>
<rect x="390" y="48" width="14" height="8" fill="#059669"/>
<text x="410" y="56" class="muted">Power (W)</text>
<rect x="104.00" y="450.00" width="45.33" height="0.00" fill="#2563eb"/>
<rect x="151.33" y="347.91" width="45.33" height="102.09" fill="#dc2626"/>
<rect x="198.67" y="145.60" width="45.33" height="304.40" fill="#059669"/>
<text x="175.00" y="474" text-anchor="middle" class="tick">50</text>
<rect x="268.00" y="395.22" width="45.33" height="54.78" fill="#2563eb"/>
<rect x="315.33" y="340.44" width="45.33" height="109.56" fill="#dc2626"/>
<rect x="362.67" y="156.98" width="45.33" height="293.02" fill="#059669"/>
<text x="339.00" y="474" text-anchor="middle" class="tick">100</text>
<rect x="432.00" y="382.77" width="45.33" height="67.23" fill="#2563eb"/>
<rect x="479.33" y="330.48" width="45.33" height="119.52" fill="#dc2626"/>
<rect x="526.67" y="142.14" width="45.33" height="307.86" fill="#059669"/>
<text x="503.00" y="474" text-anchor="middle" class="tick">250</text>
<rect x="596.00" y="382.77" width="45.33" height="67.23" fill="#2563eb"/>
<rect x="643.33" y="325.50" width="45.33" height="124.50" fill="#dc2626"/>
<rect x="690.67" y="137.48" width="45.33" height="312.52" fill="#059669"/>
<text x="667.00" y="474" text-anchor="middle" class="tick">500</text>
<rect x="760.00" y="380.28" width="45.33" height="69.72" fill="#2563eb"/>
<rect x="807.33" y="320.52" width="45.33" height="129.48" fill="#dc2626"/>
<rect x="854.67" y="129.66" width="45.33" height="320.34" fill="#059669"/>
<text x="831.00" y="474" text-anchor="middle" class="tick">1000</text>
</svg>