<svg xmlns="http://www.w3.org/2000/svg" width="900" height="520" viewBox="0 0 900 520">
<style>
text{font-family:Arial,Helvetica,sans-serif;fill:#111827} .axis{stroke:#374151;stroke-width:1.2} .grid{stroke:#e5e7eb;stroke-width:1} .muted{fill:#6b7280;font-size:12px} .title{font-size:19px;font-weight:700} .label{font-size:13px;font-weight:600} .tick{font-size:11px;fill:#374151}
</style>
<rect width="100%" height="100%" fill="white"/>
<text x="78" y="34" class="title">Latency CDF for 1000-Request Six-Worker Run</text>
<text x="22" y="255.0" transform="rotate(-90 22 255.0)" class="label">Completed requests (%)</text>
<text x="427.0" y="502" class="label">Latency (s)</text>
<line x1="78" y1="62.00" x2="866" y2="62.00" class="grid"/>
<text x="68" y="66.00" text-anchor="end" class="tick">100</text>
<line x1="78" y1="139.20" x2="866" y2="139.20" class="grid"/>
<text x="68" y="143.20" text-anchor="end" class="tick">80</text>
<line x1="78" y1="216.40" x2="866" y2="216.40" class="grid"/>
<text x="68" y="220.40" text-anchor="end" class="tick">60</text>
<line x1="78" y1="293.60" x2="866" y2="293.60" class="grid"/>
<text x="68" y="297.60" text-anchor="end" class="tick">40</text>
<line x1="78" y1="370.80" x2="866" y2="370.80" class="grid"/>
<text x="68" y="374.80" text-anchor="end" class="tick">20</text>
<line x1="78" y1="448.00" x2="866" y2="448.00" class="grid"/>
<text x="68" y="452.00" text-anchor="end" class="tick">0</text>
<text x="78.00" y="472" text-anchor="middle" class="tick">0</text>
<text x="235.60" y="472" text-anchor="middle" class="tick">28</text>
<text x="393.20" y="472" text-anchor="middle" class="tick">55</text>
<text x="550.80" y="472" text-anchor="middle" class="tick">83</text>
<text x="708.40" y="472" text-anchor="middle" class="tick">110</text>
<text x="866.00" y="472" text-anchor="middle" class="tick">138</text>
<line x1="78" y1="62" x2="78" y2="448" class="axis"/>
<line x1="78" y1="448" x2="866" y2="448" class="axis"/>
<polyline points="86.30,447.61 87.33,447.23 87.66,446.84 88.32,446.46 89.72,446.07 90.69,445.68 90.83,445.30 91.87,444.91 92.41,444.53 93.29,444.14 94.31,443.75 94.34,443.37 94.39,442.98 94.64,442.60 94.72,442.21 94.75,441.82 94.76,441.44 94.76,441.05 94.88,440.67 94.91,440.28 94.92,439.89 94.98,439.51 95.00,439.12 95.02,438.74 95.05,438.35 95.07,437.96 95.08,437.58 95.09,437.19 95.10,436.81 95.12,436.42 95.22,436.03 95.23,435.65 95.24,435.26 95.25,434.88 95.25,434.49 95.27,434.10 95.29,433.72 95.30,433.33 95.30,432.95 95.32,432.56 95.33,432.17 95.33,431.79 95.34,431.40 95.36,431.02 95.38,430.63 95.38,430.24 95.39,429.86 95.40,429.47 95.41,429.09 95.42,428.70 95.42,428.31 95.43,427.93 95.43,427.54 95.43,427.16 95.43,426.77 95.44,426.38 95.46,426.00 95.46,425.61 95.46,425.23 95.46,424.84 95.47,424.45 95.47,424.07 95.48,423.68 95.48,423.30 95.49,422.91 95.50,422.52 95.51,422.14 95.51,421.75 95.52,421.37 95.53,420.98 95.53,420.59 95.53,420.21 95.53,419.82 95.54,419.44 95.55,419.05 95.55,418.66 95.55,418.28 95.56,417.89 95.56,417.51 95.57,417.12 95.57,416.73 95.57,416.35 95.58,415.96 95.60,415.58 95.61,415.19 95.61,414.80 95.61,414.42 95.61,414.03 95.62,413.65 95.64,413.26 95.64,412.87 95.64,412.49 95.64,412.10 95.64,411.72 95.65,411.33 95.65,410.94 95.65,410.56 95.66,410.17 95.66,409.79 95.66,409.40 95.66,409.01 95.66,408.63 95.67,408.24 95.67,407.86 95.67,407.47 95.68,407.08 95.68,406.70 95.68,406.31 95.68,405.93 95.68,405.54 95.69,405.15 95.70,404.77 95.70,404.38 95.70,404.00 95.71,403.61 95.71,403.22 95.71,402.84 95.72,402.45 95.72,402.07 95.73,401.68 95.73,401.29 95.73,400.91 95.74,400.52 95.74,400.14 95.75,399.75 95.75,399.36 95.75,398.98 95.76,398.59 95.76,398.21 95.76,397.82 95.77,397.43 95.77,397.05 95.77,396.66 95.77,396.28 95.78,395.89 95.78,395.50 95.78,395.12 95.78,394.73 95.79,394.35 95.80,393.96 95.80,393.57 95.80,393.19 95.80,392.80 95.80,392.42 95.80,392.03 95.80,391.64 95.81,391.26 95.82,390.87 95.83,390.49 95.83,390.10 95.83,389.71 95.83,389.33 95.83,388.94 95.85,388.56 95.85,388.17 95.85,387.78 95.85,387.40 95.86,387.01 95.86,386.63 95.86,386.24 95.86,385.85 95.86,385.47 95.86,385.08 95.87,384.70 95.87,384.31 95.87,383.92 95.87,383.54 95.88,383.15 95.88,382.77 95.88,382.38 95.88,381.99 95.89,381.61 95.90,381.22 95.92,380.84 95.92,380.45 95.92,380.06 95.92,379.68 95.93,379.29 95.93,378.91 95.93,378.52 95.93,378.13 95.93,377.75 95.94,377.36 95.94,376.98 95.94,376.59 95.95,376.20 95.95,375.82 95.96,375.43 95.96,375.05 95.96,374.66 95.97,374.27 95.97,373.89 95.97,373.50 95.97,373.12 95.98,372.73 95.98,372.34 95.98,371.96 95.98,371.57 95.98,371.19 95.98,370.80 95.99,370.41 95.99,370.03 95.99,369.64 95.99,369.26 96.01,368.87 96.01,368.48 96.02,368.10 96.02,367.71 96.02,367.33 96.02,366.94 96.03,366.55 96.03,366.17 96.03,365.78 96.03,365.40 96.03,365.01 96.04,364.62 96.04,364.24 96.04,363.85 96.04,363.47 96.04,363.08 96.04,362.69 96.05,362.31 96.05,361.92 96.05,361.54 96.05,361.15 96.06,360.76 96.06,360.38 96.06,359.99 96.06,359.61 96.06,359.22 96.07,358.83 96.07,358.45 96.08,358.06 96.08,357.68 96.08,357.29 96.08,356.90 96.08,356.52 96.09,356.13 96.09,355.75 96.09,355.36 96.10,354.97 96.10,354.59 96.10,354.20 96.10,353.82 96.10,353.43 96.10,353.04 96.10,352.66 96.11,352.27 96.11,351.89 96.11,351.50 96.11,351.11 96.11,350.73 96.11,350.34 96.11,349.96 96.11,349.57 96.12,349.18 96.12,348.80 96.12,348.41 96.12,348.03 96.13,347.64 96.13,347.25 96.13,346.87 96.14,346.48 96.14,346.10 96.14,345.71 96.14,345.32 96.14,344.94 96.14,344.55 96.14,344.17 96.14,343.78 96.15,343.39 96.15,343.01 96.15,342.62 96.15,342.24 96.16,341.85 96.16,341.46 96.16,341.08 96.17,340.69 96.17,340.31 96.17,339.92 96.19,339.53 96.19,339.15 96.19,338.76 96.19,338.38 96.19,337.99 96.19,337.60 96.19,337.22 96.20,336.83 96.20,336.45 96.20,336.06 96.20,335.67 96.20,335.29 96.21,334.90 96.21,334.52 96.21,334.13 96.22,333.74 96.22,333.36 96.23,332.97 96.23,332.59 96.23,332.20 96.23,331.81 96.24,331.43 96.24,331.04 96.25,330.66 96.25,330.27 96.25,329.88 96.25,329.50 96.26,329.11 96.26,328.73 96.26,328.34 96.27,327.95 96.28,327.57 96.29,327.18 96.29,326.80 96.31,326.41 96.31,326.02 96.31,325.64 96.32,325.25 96.32,324.87 96.32,324.48 96.32,324.09 96.33,323.71 96.33,323.32 96.33,322.94 96.34,322.55 96.34,322.16 96.34,321.78 96.35,321.39 96.35,321.01 96.35,320.62 96.35,320.23 96.36,319.85 96.36,319.46 96.36,319.08 96.37,318.69 96.37,318.30 96.37,317.92 96.37,317.53 96.38,317.15 96.38,316.76 96.38,316.37 96.38,315.99 96.38,315.60 96.40,315.22 96.41,314.83 96.41,314.44 96.41,314.06 96.41,313.67 96.42,313.29 96.42,312.90 96.42,312.51 96.42,312.13 96.43,311.74 96.43,311.36 96.44,310.97 96.44,310.58 96.44,310.20 96.45,309.81 96.45,309.43 96.47,309.04 96.47,308.65 96.47,308.27 96.48,307.88 96.48,307.50 96.49,307.11 96.49,306.72 96.50,306.34 96.50,305.95 96.50,305.57 96.51,305.18 96.51,304.79 96.51,304.41 96.51,304.02 96.51,303.64 96.52,303.25 96.52,302.86 96.53,302.48 96.53,302.09 96.53,301.71 96.53,301.32 96.54,300.93 96.54,300.55 96.55,300.16 96.56,299.78 96.57,299.39 96.58,299.00 96.58,298.62 96.58,298.23 96.59,297.85 96.59,297.46 96.59,297.07 96.59,296.69 96.59,296.30 96.61,295.92 96.61,295.53 96.62,295.14 96.63,294.76 96.63,294.37 96.65,293.99 96.65,293.60 96.65,293.21 96.67,292.83 96.68,292.44 96.68,292.06 96.69,291.67 96.69,291.28 96.70,290.90 96.71,290.51 96.72,290.13 96.73,289.74 96.73,289.35 96.73,288.97 96.74,288.58 96.74,288.20 96.74,287.81 96.75,287.42 96.75,287.04 96.76,286.65 96.77,286.27 96.77,285.88 96.78,285.49 96.80,285.11 96.80,284.72 96.80,284.34 96.81,283.95 96.82,283.56 96.82,283.18 96.82,282.79 96.82,282.41 96.83,282.02 96.84,281.63 96.84,281.25 96.84,280.86 96.84,280.48 96.85,280.09 96.85,279.70 96.86,279.32 96.87,278.93 96.89,278.55 96.89,278.16 96.89,277.77 96.89,277.39 96.89,277.00 96.90,276.62 96.90,276.23 96.92,275.84 96.92,275.46 96.92,275.07 96.92,274.69 96.92,274.30 96.93,273.91 96.93,273.53 96.93,273.14 96.93,272.76 96.94,272.37 96.95,271.98 96.96,271.60 96.96,271.21 96.97,270.83 96.97,270.44 96.98,270.05 96.98,269.67 96.99,269.28 97.00,268.90 97.00,268.51 97.01,268.12 97.01,267.74 97.01,267.35 97.02,266.97 97.02,266.58 97.04,266.19 97.05,265.81 97.05,265.42 97.08,265.04 97.08,264.65 97.08,264.26 97.10,263.88 97.10,263.49 97.10,263.11 97.11,262.72 97.11,262.33 97.14,261.95 97.15,261.56 97.15,261.18 97.16,260.79 97.17,260.40 97.17,260.02 97.21,259.63 97.22,259.25 97.22,258.86 97.22,258.47 97.23,258.09 97.23,257.70 97.24,257.32 97.25,256.93 97.25,256.54 97.27,256.16 97.27,255.77 97.27,255.39 97.28,255.00 97.29,254.61 97.30,254.23 97.32,253.84 97.32,253.46 97.32,253.07 97.34,252.68 97.36,252.30 97.37,251.91 97.37,251.53 97.38,251.14 97.38,250.75 97.42,250.37 97.43,249.98 97.43,249.60 97.43,249.21 97.45,248.82 97.46,248.44 97.46,248.05 97.46,247.67 97.48,247.28 97.49,246.89 97.49,246.51 97.49,246.12 97.49,245.74 97.50,245.35 97.50,244.96 97.53,244.58 97.54,244.19 97.55,243.81 97.56,243.42 97.56,243.03 97.57,242.65 97.62,242.26 97.63,241.88 97.63,241.49 97.65,241.10 97.66,240.72 97.66,240.33 97.68,239.95 97.68,239.56 97.70,239.17 97.72,238.79 97.73,238.40 97.74,238.02 97.75,237.63 97.76,237.24 97.76,236.86 97.77,236.47 97.78,236.09 97.80,235.70 97.81,235.31 97.81,234.93 97.81,234.54 97.83,234.16 97.86,233.77 97.87,233.38 97.89,233.00 97.92,232.61 97.92,232.23 97.92,231.84 97.92,231.45 97.98,231.07 97.98,230.68 97.98,230.30 97.99,229.91 98.00,229.52 98.01,229.14 98.03,228.75 98.03,228.37 98.03,227.98 98.05,227.59 98.06,227.21 98.06,226.82 98.07,226.44 98.09,226.05 98.11,225.66 98.13,225.28 98.14,224.89 98.16,224.51 98.19,224.12 98.21,223.73 98.23,223.35 98.26,222.96 98.26,222.58 98.26,222.19 98.27,221.80 98.30,221.42 98.33,221.03 98.33,220.65 98.33,220.26 98.38,219.87 98.38,219.49 98.40,219.10 98.40,218.72 98.43,218.33 98.44,217.94 98.49,217.56 98.50,217.17 98.53,216.79 98.57,216.40 98.60,216.01 98.64,215.63 98.69,215.24 98.93,214.86 98.95,214.47 98.96,214.08 99.00,213.70 99.01,213.31 99.02,212.93 99.04,212.54 99.05,212.15 99.07,211.77 99.07,211.38 99.16,211.00 99.17,210.61 99.19,210.22 99.24,209.84 99.27,209.45 99.31,209.07 99.37,208.68 99.48,208.29 99.58,207.91 99.66,207.52 99.67,207.14 99.80,206.75 100.23,206.36 100.47,205.98 101.72,205.59 101.81,205.21 102.48,204.82 102.59,204.43 102.89,204.05 105.22,203.66 113.22,203.28 113.41,202.89 113.63,202.50 115.77,202.12 123.17,201.73 125.07,201.35 127.80,200.96 128.06,200.57 130.80,200.19 132.80,199.80 136.87,199.42 139.81,199.03 141.97,198.64 144.15,198.26 145.30,197.87 146.73,197.49 147.68,197.10 151.48,196.71 153.85,196.33 154.85,195.94 155.67,195.56 157.35,195.17 160.59,194.78 161.79,194.40 162.85,194.01 163.83,193.63 164.59,193.24 167.28,192.85 167.34,192.47 168.35,192.08 170.24,191.70 170.35,191.31 171.24,190.92 171.63,190.54 172.05,190.15 172.54,189.77 172.58,189.38 172.60,188.99 173.39,188.61 173.41,188.22 173.68,187.84 173.79,187.45 173.86,187.06 173.92,186.68 174.09,186.29 174.10,185.91 174.10,185.52 174.19,185.13 174.28,184.75 174.32,184.36 174.32,183.98 174.41,183.59 174.54,183.20 174.54,182.82 174.61,182.43 174.64,182.05 174.67,181.66 174.68,181.27 174.68,180.89 174.81,180.50 174.89,180.12 174.93,179.73 175.00,179.34 175.04,178.96 175.09,178.57 175.12,178.19 175.36,177.80 175.62,177.41 175.63,177.03 175.76,176.64 175.77,176.26 175.82,175.87 176.01,175.48 176.04,175.10 176.05,174.71 176.06,174.33 176.09,173.94 176.28,173.55 176.31,173.17 176.32,172.78 176.54,172.40 176.55,172.01 176.57,171.62 176.59,171.24 176.61,170.85 176.74,170.47 176.77,170.08 176.91,169.69 177.05,169.31 177.11,168.92 177.31,168.54 177.32,168.15 177.33,167.76 177.49,167.38 177.57,166.99 177.60,166.61 177.83,166.22 177.93,165.83 178.23,165.45 178.25,165.06 178.38,164.68 178.43,164.29 178.47,163.90 178.47,163.52 178.49,163.13 178.51,162.75 178.59,162.36 178.59,161.97 178.70,161.59 178.71,161.20 178.73,160.82 178.74,160.43 178.75,160.04 178.77,159.66 178.77,159.27 178.90,158.89 179.98,158.50 180.00,158.11 180.04,157.73 180.14,157.34 180.14,156.96 180.18,156.57 180.24,156.18 180.69,155.80 180.72,155.41 180.73,155.03 180.87,154.64 181.27,154.25 181.33,153.87 181.46,153.48 181.53,153.10 181.53,152.71 181.57,152.32 181.62,151.94 181.75,151.55 181.76,151.17 181.97,150.78 182.18,150.39 182.25,150.01 182.59,149.62 182.62,149.24 182.72,148.85 182.75,148.46 182.76,148.08 182.77,147.69 182.86,147.31 182.93,146.92 183.17,146.53 183.22,146.15 183.24,145.76 183.56,145.38 183.69,144.99 184.40,144.60 184.53,144.22 184.89,143.83 184.95,143.45 184.99,143.06 185.24,142.67 185.37,142.29 185.50,141.90 185.58,141.52 185.81,141.13 185.83,140.74 185.83,140.36 185.89,139.97 185.90,139.59 186.04,139.20 186.32,138.81 186.45,138.43 186.53,138.04 186.69,137.66 186.69,137.27 186.84,136.88 187.12,136.50 187.23,136.11 187.25,135.73 187.56,135.34 187.68,134.95 188.08,134.57 188.14,134.18 188.29,133.80 188.53,133.41 188.82,133.02 188.89,132.64 189.00,132.25 189.16,131.87 189.31,131.48 189.41,131.09 189.59,130.71 189.84,130.32 189.95,129.94 190.04,129.55 190.18,129.16 190.19,128.78 190.94,128.39 191.71,128.01 192.46,127.62 192.51,127.23 193.03,126.85 193.12,126.46 193.29,126.08 193.45,125.69 193.45,125.30 193.47,124.92 193.71,124.53 194.37,124.15 194.42,123.76 194.81,123.37 194.83,122.99 195.44,122.60 196.25,122.22 196.36,121.83 197.45,121.44 197.78,121.06 198.19,120.67 198.31,120.29 198.33,119.90 198.44,119.51 198.51,119.13 198.75,118.74 198.76,118.36 199.67,117.97 200.34,117.58 200.35,117.20 200.72,116.81 200.90,116.43 201.36,116.04 201.98,115.65 201.99,115.27 202.05,114.88 202.44,114.50 203.52,114.11 203.59,113.72 203.73,113.34 204.13,112.95 204.16,112.57 204.17,112.18 204.45,111.79 204.54,111.41 204.77,111.02 205.01,110.64 205.15,110.25 205.25,109.86 205.83,109.48 207.24,109.09 207.49,108.71 208.54,108.32 210.96,107.93 211.87,107.55 212.26,107.16 212.28,106.78 212.36,106.39 212.61,106.00 212.69,105.62 216.54,105.23 216.96,104.85 224.15,104.46 225.95,104.07 227.49,103.69 227.94,103.30 232.53,102.92 235.06,102.53 240.68,102.14 242.44,101.76 244.25,101.37 245.98,100.99 247.95,100.60 249.80,100.21 251.30,99.83 254.68,99.44 259.33,99.06 259.83,98.67 269.68,98.28 275.64,97.90 285.91,97.51 287.08,97.13 287.92,96.74 291.05,96.35 295.61,95.97 298.10,95.58 298.17,95.20 298.22,94.81 300.05,94.42 302.05,94.04 302.65,93.65 305.65,93.27 315.22,92.88 319.71,92.49 319.90,92.11 322.80,91.72 328.20,91.34 329.54,90.95 334.67,90.56 337.82,90.18 339.28,89.79 341.82,89.41 349.71,89.02 350.71,88.63 355.15,88.25 355.28,87.86 364.18,87.48 373.70,87.09 374.92,86.70 376.75,86.32 383.92,85.93 386.85,85.55 391.15,85.16 395.10,84.77 395.75,84.39 405.51,84.00 411.13,83.62 414.62,83.23 435.64,82.84 436.00,82.46 436.93,82.07 438.36,81.69 438.61,81.30 442.77,80.91 443.35,80.53 449.65,80.14 451.51,79.76 463.23,79.37 479.55,78.98 486.53,78.60 493.11,78.21 500.11,77.83 500.49,77.44 508.78,77.05 510.96,76.67 512.94,76.28 519.97,75.90 525.05,75.51 531.24,75.12 531.48,74.74 540.14,74.35 541.60,73.97 553.44,73.58 567.99,73.19 573.01,72.81 574.22,72.42 578.90,72.04 580.95,71.65 588.56,71.26 592.01,70.88 604.54,70.49 613.87,70.11 651.31,69.72 653.33,69.33 714.90,68.95 715.93,68.56 719.47,68.18 720.44,67.79 723.36,67.40 727.07,67.02 727.89,66.63 731.31,66.25 734.00,65.86 738.50,65.47 738.54,65.09 741.81,64.70 744.99,64.32 745.51,63.93 748.64,63.54 752.44,63.16 807.00,62.77 821.04,62.39 828.48,62.00" fill="none" stroke="#7c3aed" stroke-width="3"/>
</svg>