<svg xmlns="http://www.w3.org/2000/svg" width="900" height="520" viewBox="0 0 900 520">
<style>
text{font-family:Arial,Helvetica,sans-serif;fill:#111827} .axis{stroke:#374151;stroke-width:1.2} .grid{stroke:#e5e7eb;stroke-width:1} .muted{fill:#6b7280;font-size:12px} .title{font-size:19px;font-weight:700} .label{font-size:13px;font-weight:600} .tick{font-size:11px;fill:#374151}
</style>
<rect width="100%" height="100%" fill="white"/>
<text x="78" y="34" class="title">Throughput Scaling with Six Thunder Workers</text>
<text x="22" y="255.0" transform="rotate(-90 22 255.0)" class="label">Requests / second</text>
<text x="410.0" y="502" class="label">Concurrent users</text>
<line x1="78" y1="62.00" x2="866" y2="62.00" class="grid"/>
<text x="68" y="66.00" text-anchor="end" class="tick">29.8</text>
<line x1="78" y1="139.20" x2="866" y2="139.20" class="grid"/>
<text x="68" y="143.20" text-anchor="end" class="tick">23.9</text>
<line x1="78" y1="216.40" x2="866" y2="216.40" class="grid"/>
<text x="68" y="220.40" text-anchor="end" class="tick">17.9</text>
<line x1="78" y1="293.60" x2="866" y2="293.60" class="grid"/>
<text x="68" y="297.60" text-anchor="end" class="tick">11.9</text>
<line x1="78" y1="370.80" x2="866" y2="370.80" class="grid"/>
<text x="68" y="374.80" text-anchor="end" class="tick">6.0</text>
<line x1="78" y1="448.00" x2="866" y2="448.00" class="grid"/>
<text x="68" y="452.00" text-anchor="end" class="tick">0.0</text>
<line x1="78" y1="62" x2="78" y2="448" class="axis"/>
<line x1="78" y1="448" x2="866" y2="448" class="axis"/>
<text x="78.00" y="472" text-anchor="middle" class="tick">50</text>
<text x="275.00" y="472" text-anchor="middle" class="tick">100</text>
<text x="472.00" y="472" text-anchor="middle" class="tick">250</text>
<text x="669.00" y="472" text-anchor="middle" class="tick">500</text>
<text x="866.00" y="472" text-anchor="middle" class="tick">1000</text>
<polyline points="78.00,424.24 275.00,406.81 472.00,380.26 669.00,249.79 866.00,112.35" fill="none" stroke="#dc2626" stroke-width="3"/>
<circle cx="78.00" cy="424.24" r="4" fill="#dc2626"/>
<circle cx="275.00" cy="406.81" r="4" fill="#dc2626"/>
<circle cx="472.00" cy="380.26" r="4" fill="#dc2626"/>
<circle cx="669.00" cy="249.79" r="4" fill="#dc2626"/>
<circle cx="866.00" cy="112.35" r="4" fill="#dc2626"/>
<rect x="88" y="42" width="14" height="4" fill="#dc2626"/>
<text x="110" y="47" class="muted">2 workers</text>
<polyline points="78.00,420.40 275.00,399.11 472.00,386.22 669.00,374.41 866.00,358.63" fill="none" stroke="#2563eb" stroke-width="3"/>
<circle cx="78.00" cy="420.40" r="4" fill="#2563eb"/>
<circle cx="275.00" cy="399.11" r="4" fill="#2563eb"/>
<circle cx="472.00" cy="386.22" r="4" fill="#2563eb"/>
<circle cx="669.00" cy="374.41" r="4" fill="#2563eb"/>
<circle cx="866.00" cy="358.63" r="4" fill="#2563eb"/>
<rect x="88" y="62" width="14" height="4" fill="#2563eb"/>
<text x="110" y="67" class="muted">6 workers</text>
</svg>